<svg xmlns="http://www.w3.org/2000/svg" xmlns:xlink="http://www.w3.org/1999/xlink" width="143.5" height="92.657" viewBox="0 0 143.5 92.657"><defs><clipPath id="a"><rect width="143.482" height="26.039" fill="none"/></clipPath></defs><g transform="translate(-886 -6098.091)"><line x2="143" transform="translate(886.5 6155.5)" fill="none" stroke="#fff" stroke-width="1"/><g transform="translate(886 6164.709)" clip-path="url(#a)"><path d="M582.131,324.357v6.015H576.1v-6.015h-2.926v15.976H576.1v-7.191h6.031v7.191h2.922V324.357Z" transform="translate(-573.174 -319.328)" fill="#fff"/><path d="M633.928,324.357v2.77h3.534v13.207h2.923V327.126h3.525v-2.77Z" transform="translate(-589.997 -319.328)" fill="#fff"/><path d="M651.581,324.357v2.77h3.54v13.207h2.923V327.126h3.52v-2.77Z" transform="translate(-594.884 -319.328)" fill="#fff"/><path d="M724.234,326.706a6.166,6.166,0,0,1,3.976,1.616l.459.409V325.17l-.122-.089a8.3,8.3,0,0,0-4.152-1.154,8.034,8.034,0,0,0-6.408,2.93,8.21,8.21,0,0,0-2.018,5.434,7.963,7.963,0,0,0,2.4,5.806,8.049,8.049,0,0,0,5.843,2.393,9.221,9.221,0,0,0,4.454-1.163v-3.338a7.168,7.168,0,0,1-4.422,1.727,4.886,4.886,0,0,1-3.8-1.571,5.725,5.725,0,0,1,0-7.822,4.972,4.972,0,0,1,3.787-1.616" transform="translate(-612.713 -319.209)" fill="#fff"/><path d="M766.643,332.419a6.748,6.748,0,0,0-2.851-1.935l-1.527-.631c-.99-.4-1.488-.924-1.488-1.532a1.416,1.416,0,0,1,.527-1.141,2.291,2.291,0,0,1,1.416-.475,2.455,2.455,0,0,1,2.038,1.368l.155.19.253-.093,2.135-1.265-.148-.248a4.893,4.893,0,0,0-4.412-2.73,5.078,5.078,0,0,0-3.495,1.252,3.988,3.988,0,0,0-1.427,3.129c0,1.829,1.126,3.236,3.335,4.168l1.479.622.955.5.614.529s.337.581.337.581l.1.738a2.2,2.2,0,0,1-.626,1.629,2.11,2.11,0,0,1-1.59.639,2.029,2.029,0,0,1-1.853-1.1,5.145,5.145,0,0,1-.506-1.515l-.075-.262-.283.014-2.615.582.033.27a5.76,5.76,0,0,0,1.7,3.511,5,5,0,0,0,3.51,1.27,5.155,5.155,0,0,0,3.741-1.479,4.991,4.991,0,0,0,1.511-3.729,4.45,4.45,0,0,0-.939-2.863" transform="translate(-624.099 -319.209)" fill="#fff"/><path d="M702.679,324.245v1.58a7.311,7.311,0,0,0-4.947-1.873,7.49,7.49,0,0,0-5.6,2.428,8.53,8.53,0,0,0,.216,11.972,7.648,7.648,0,0,0,5.266,2.14,7.551,7.551,0,0,0,5.065-1.856v1.585H705.6V324.245Zm-1.456,11.91a4.7,4.7,0,0,1-7,.022,5.959,5.959,0,0,1-.06-7.875,4.613,4.613,0,0,1,3.543-1.584,4.526,4.526,0,0,1,3.53,1.576,5.452,5.452,0,0,1,1.44,3.728v.391a5.623,5.623,0,0,1-1.456,3.742" transform="translate(-605.463 -319.216)" fill="#fff"/><path d="M13.01,26.039A13.015,13.015,0,0,1,0,13.021,13.015,13.015,0,0,1,22.219,3.813,13.02,13.02,0,0,1,13.01,26.039Zm0-23A9.981,9.981,0,1,0,23,13.021,10,10,0,0,0,13.01,3.036Z" transform="translate(15.527 0)" fill="#fff"/><path d="M616.981,332.72a7.019,7.019,0,1,1-7.018-7.019,7.024,7.024,0,0,1,7.018,7.019" transform="translate(-581.417 -319.7)" fill="#fff"/><path d="M678.266,333.559a4.553,4.553,0,0,0,2.281-1.4,4.713,4.713,0,0,0,1-2.993,4.511,4.511,0,0,0-1.6-3.591,7.092,7.092,0,0,0-4.594-1.221h-4.7v15.976h2.918v-6.3h1.8l4.229,6.3h3.566c-.793-1.1-4.611-6.361-4.909-6.77m-2.568-2.144h-2.122v-4.289h2.213c2.6,0,2.9,1.172,2.9,2.061,0,.959-.309,2.228-3,2.228" transform="translate(-600.167 -319.328)" fill="#fff"/><path d="M741.806,333.666l.114-.079c.3.367,4.994,6.164,5.467,6.742h3.877c-.957-1.145-6.928-8.323-7.223-8.692l7.274-7.28H747.5s-4.835,4.852-5.689,5.713v-5.713h-2.919v15.972h2.919Z" transform="translate(-619.059 -319.328)" fill="#fff"/><path d="M741.806,346.445h0Z" transform="translate(-619.059 -325.444)" fill="#fff"/></g><g transform="translate(-352 5973.804)"><path d="M758.834,1213.366l-2.871-4.436a3.618,3.618,0,0,1,1.324-4.941h0a3.618,3.618,0,0,1,4.942,1.324l1.866,3.042" transform="translate(546.026 -1071.817)" fill="none" stroke="#fff" stroke-miterlimit="10" stroke-width="2"/><path d="M776.408,1240.167l6.932-7.475a3.618,3.618,0,0,0-.193-5.112h0a3.617,3.617,0,0,0-5.112.193l.674-.727a3.617,3.617,0,0,0-.193-5.112h0a3.617,3.617,0,0,0-5.112.193l-.487.525,1.3-1.405a3.618,3.618,0,0,0-.193-5.113h0a3.618,3.618,0,0,0-5.112.193l8.357-8.811c1.359-1.465,1.739-3.574-.193-5.112h0a3.785,3.785,0,0,0-4.811.962l-10.182,9.685" transform="translate(542.491 -1070.957)" fill="none" stroke="#fff" stroke-miterlimit="10" stroke-width="2"/><path d="M754.578,1225.876s-7.614,7.224-6.4,15.775l1.526,14.675" transform="translate(550 -1083.784)" fill="none" stroke="#fff" stroke-miterlimit="10" stroke-width="2"/><line x2="0.604" y2="2.417" transform="translate(1315.242 125.5)" fill="none" stroke="#fff" stroke-linecap="round" stroke-width="2"/><line x1="2.417" y1="0.604" transform="translate(1324.306 135.773)" fill="none" stroke="#fff" stroke-linecap="round" stroke-width="2"/><line x1="1.813" y2="1.813" transform="translate(1322.494 127.313)" fill="none" stroke="#fff" stroke-linecap="round" stroke-width="2"/></g></g></svg>