<svg xmlns="http://www.w3.org/2000/svg" xmlns:xlink="http://www.w3.org/1999/xlink" width="143.5" height="96.438" viewBox="0 0 143.5 96.438">
  <defs>
    <clipPath id="clip-path">
      <rect width="143.482" height="26.039" fill="none"/>
    </clipPath>
  </defs>
  <g id="하단로고" transform="translate(-886 -6094.31)">
    <line id="Line_37" data-name="Line 37" x2="143" transform="translate(886.5 6155.5)" fill="none" stroke="#fff" stroke-width="1"/>
    <g id="Component_8_4" data-name="Component 8 – 4" transform="translate(886 6164.709)" clip-path="url(#clip-path)">
      <path id="Path_3350" data-name="Path 3350" d="M582.131,324.357v6.015H576.1v-6.015h-2.926v15.976H576.1v-7.191h6.031v7.191h2.922V324.357Z" transform="translate(-573.174 -319.328)" fill="#fff"/>
      <path id="Path_3351" data-name="Path 3351" d="M633.928,324.357v2.77h3.534v13.207h2.923V327.126h3.525v-2.77Z" transform="translate(-589.997 -319.328)" fill="#fff"/>
      <path id="Path_3352" data-name="Path 3352" d="M651.581,324.357v2.77h3.54v13.207h2.923V327.126h3.52v-2.77Z" transform="translate(-594.884 -319.328)" fill="#fff"/>
      <path id="Path_3353" data-name="Path 3353" d="M724.234,326.706a6.166,6.166,0,0,1,3.976,1.616l.459.409V325.17l-.122-.089a8.3,8.3,0,0,0-4.152-1.154,8.034,8.034,0,0,0-6.408,2.93,8.21,8.21,0,0,0-2.018,5.434,7.963,7.963,0,0,0,2.4,5.806,8.049,8.049,0,0,0,5.843,2.393,9.221,9.221,0,0,0,4.454-1.163v-3.338a7.168,7.168,0,0,1-4.422,1.727,4.886,4.886,0,0,1-3.8-1.571,5.725,5.725,0,0,1,0-7.822,4.972,4.972,0,0,1,3.787-1.616" transform="translate(-612.713 -319.209)" fill="#fff"/>
      <path id="Path_3354" data-name="Path 3354" d="M766.643,332.419a6.748,6.748,0,0,0-2.851-1.935l-1.527-.631c-.99-.4-1.488-.924-1.488-1.532a1.416,1.416,0,0,1,.527-1.141,2.291,2.291,0,0,1,1.416-.475,2.455,2.455,0,0,1,2.038,1.368l.155.19.253-.093,2.135-1.265-.148-.248a4.893,4.893,0,0,0-4.412-2.73,5.078,5.078,0,0,0-3.495,1.252,3.988,3.988,0,0,0-1.427,3.129c0,1.829,1.126,3.236,3.335,4.168l1.479.622.955.5.614.529s.337.581.337.581l.1.738a2.2,2.2,0,0,1-.626,1.629,2.11,2.11,0,0,1-1.59.639,2.029,2.029,0,0,1-1.853-1.1,5.145,5.145,0,0,1-.506-1.515l-.075-.262-.283.014-2.615.582.033.27a5.76,5.76,0,0,0,1.7,3.511,5,5,0,0,0,3.51,1.27,5.155,5.155,0,0,0,3.741-1.479,4.991,4.991,0,0,0,1.511-3.729,4.45,4.45,0,0,0-.939-2.863" transform="translate(-624.099 -319.209)" fill="#fff"/>
      <path id="Path_3355" data-name="Path 3355" d="M702.679,324.245v1.58a7.311,7.311,0,0,0-4.947-1.873,7.49,7.49,0,0,0-5.6,2.428,8.53,8.53,0,0,0,.216,11.972,7.648,7.648,0,0,0,5.266,2.14,7.551,7.551,0,0,0,5.065-1.856v1.585H705.6V324.245Zm-1.456,11.91a4.7,4.7,0,0,1-7,.022,5.959,5.959,0,0,1-.06-7.875,4.613,4.613,0,0,1,3.543-1.584,4.526,4.526,0,0,1,3.53,1.576,5.452,5.452,0,0,1,1.44,3.728v.391a5.623,5.623,0,0,1-1.456,3.742" transform="translate(-605.463 -319.216)" fill="#fff"/>
      <path id="Exclusion_3" data-name="Exclusion 3" d="M13.01,26.039A13.015,13.015,0,0,1,0,13.021,13.015,13.015,0,0,1,22.219,3.813,13.02,13.02,0,0,1,13.01,26.039Zm0-23A9.981,9.981,0,1,0,23,13.021,10,10,0,0,0,13.01,3.036Z" transform="translate(15.527 0)" fill="#fff"/>
      <path id="Path_3358" data-name="Path 3358" d="M616.981,332.72a7.019,7.019,0,1,1-7.018-7.019,7.024,7.024,0,0,1,7.018,7.019" transform="translate(-581.417 -319.7)" fill="#fff"/>
      <path id="Path_3359" data-name="Path 3359" d="M678.266,333.559a4.553,4.553,0,0,0,2.281-1.4,4.713,4.713,0,0,0,1-2.993,4.511,4.511,0,0,0-1.6-3.591,7.092,7.092,0,0,0-4.594-1.221h-4.7v15.976h2.918v-6.3h1.8l4.229,6.3h3.566c-.793-1.1-4.611-6.361-4.909-6.77m-2.568-2.144h-2.122v-4.289h2.213c2.6,0,2.9,1.172,2.9,2.061,0,.959-.309,2.228-3,2.228" transform="translate(-600.167 -319.328)" fill="#fff"/>
      <path id="Path_3360" data-name="Path 3360" d="M741.806,333.666l.114-.079c.3.367,4.994,6.164,5.467,6.742h3.877c-.957-1.145-6.928-8.323-7.223-8.692l7.274-7.28H747.5s-4.835,4.852-5.689,5.713v-5.713h-2.919v15.972h2.919Z" transform="translate(-619.059 -319.328)" fill="#fff"/>
      <path id="Path_3361" data-name="Path 3361" d="M741.806,346.445h0Z" transform="translate(-619.059 -325.444)" fill="#fff"/>
    </g>
    <path id="Path_37010" data-name="Path 37010" d="M79.861,94.453l.423.533,2.52,2.548,20.149,20.373,20.556-20c1.15-1.238,2.271-2.628,2.866-3.425h0a14.379,14.379,0,0,0,2.833-8.592h0a14.445,14.445,0,0,0-14.445-14.445h0a14.422,14.422,0,0,0-11.634,5.885A14.424,14.424,0,0,0,91.5,71.448h0A14.445,14.445,0,0,0,77.05,85.893h0a14.485,14.485,0,0,0,.224,2.545H89.248l3.08-7.852,5.719,20.568,3.19-10.669,1.43-5.334,1.76,7.2L108,87.846l1.76,3.3,2.53-2.86,16.727-.037" transform="translate(854.949 6023.862)" fill="none" stroke="#fff" stroke-linecap="round" stroke-linejoin="round" stroke-width="2"/>
  </g>
</svg>
