<svg xmlns="http://www.w3.org/2000/svg" width="48.871" height="76.851" viewBox="0 0 48.871 76.851"><path d="M215.408,121.591a5.492,5.492,0,0,1-.336-4.511,6.709,6.709,0,0,1,6.493-4.432,5.581,5.581,0,0,1,5.38,3.393,5.893,5.893,0,0,1,5.415-3.381c2.885,0,5.1,2.468,5.8,4.116,2.112,4.942-.561,7.572-.561,7.572l-10.736,10.736-8.712-9.239v15.433h30.04V123.463c0-25.053-11.616-27.553-20.151-27.553,6.947-.705,11.491-6.572,11.491-13.7a13.775,13.775,0,1,0-27.55,0c0,7.013,4.524,12.814,11.3,13.675-8.534,0-19.964,5.156-19.964,27.581v17.818" transform="translate(-201.322 -66.431)" fill="none" stroke="#000" stroke-linecap="round" stroke-linejoin="round" stroke-width="4"/></svg>