<svg xmlns="http://www.w3.org/2000/svg" width="74.001" height="66.351" viewBox="0 0 74.001 66.351"><path d="M80.823,102.323l.567.715,3.382,3.42L111.814,133.8,139.4,106.962c1.544-1.662,3.047-3.527,3.847-4.6h0a19.3,19.3,0,0,0,3.8-11.53h0a19.386,19.386,0,0,0-19.387-19.387h0a19.355,19.355,0,0,0-15.613,7.9,19.358,19.358,0,0,0-15.614-7.9h0A19.387,19.387,0,0,0,77.05,90.835h0a19.44,19.44,0,0,0,.3,3.415H93.42l4.133-10.537,7.676,27.6L109.51,97l1.919-7.159,2.361,9.668,4.8-6.052,2.361,4.428,3.4-3.838L146.794,94" transform="translate(-75.05 -69.448)" fill="none" stroke="#000" stroke-linecap="round" stroke-linejoin="round" stroke-width="4"/></svg>