<svg xmlns="http://www.w3.org/2000/svg" xmlns:xlink="http://www.w3.org/1999/xlink" width="299.999" height="192.386" viewBox="0 0 299.999 192.386"><defs><clipPath id="a"><rect width="299.964" height="54.437" fill="none"/></clipPath></defs><g transform="translate(-886.001 -6098.091)"><line x2="299.143" transform="translate(886.858 6216.788)" fill="none" stroke="#fff" stroke-width="1"/><g transform="translate(886 6236.04)" clip-path="url(#a)"><path d="M591.9,324.357v12.575H579.291V324.357h-6.116v33.4h6.116V342.724H591.9v15.033h6.109v-33.4Z" transform="translate(-573.174 -313.843)" fill="#fff"/><path d="M633.928,324.357v5.79h7.387v27.61h6.11v-27.61h7.37v-5.79Z" transform="translate(-542.085 -313.843)" fill="#fff"/><path d="M651.58,324.357v5.79h7.4v27.61h6.112v-27.61h7.358v-5.79Z" transform="translate(-533.052 -313.843)" fill="#fff"/><path d="M733.248,329.737a12.891,12.891,0,0,1,8.312,3.379l.96.854v-7.444l-.256-.186a17.341,17.341,0,0,0-8.68-2.413,16.8,16.8,0,0,0-13.4,6.126,17.163,17.163,0,0,0-4.219,11.361,16.647,16.647,0,0,0,5.025,12.138,16.827,16.827,0,0,0,12.215,5,19.275,19.275,0,0,0,9.312-2.432v-6.978a14.985,14.985,0,0,1-9.244,3.61,10.213,10.213,0,0,1-7.944-3.285,11.97,11.97,0,0,1,0-16.352,10.394,10.394,0,0,1,7.917-3.379" transform="translate(-500.103 -314.063)" fill="#fff"/><path d="M777.059,341.681a14.107,14.107,0,0,0-5.961-4.045l-3.193-1.318c-2.07-.845-3.111-1.932-3.111-3.2a2.96,2.96,0,0,1,1.1-2.386,4.789,4.789,0,0,1,2.96-.993c2.9,0,4.26,2.86,4.26,2.86l.324.4.529-.2,4.463-2.646-.31-.518c-2.183-3.785-5.281-5.708-9.225-5.708a10.616,10.616,0,0,0-7.306,2.618,8.336,8.336,0,0,0-2.984,6.541c0,3.825,2.354,6.765,6.972,8.714l3.091,1.3,2,1.049,1.284,1.105c.007.009.7,1.214.7,1.214l.216,1.542a4.593,4.593,0,0,1-1.308,3.406,4.412,4.412,0,0,1-3.324,1.336,4.242,4.242,0,0,1-3.874-2.292,10.753,10.753,0,0,1-1.058-3.167l-.157-.547-.591.029-5.468,1.217.069.565a12.042,12.042,0,0,0,3.545,7.341,10.444,10.444,0,0,0,7.338,2.655,10.777,10.777,0,0,0,7.82-3.091,10.434,10.434,0,0,0,3.16-7.8,9.3,9.3,0,0,0-1.964-5.985" transform="translate(-479.059 -314.063)" fill="#fff"/><path d="M716.74,324.564v3.3a15.285,15.285,0,0,0-10.342-3.915,15.658,15.658,0,0,0-11.706,5.076,17.834,17.834,0,0,0,.451,25.028,15.988,15.988,0,0,0,11.008,4.475,15.787,15.787,0,0,0,10.588-3.881v3.314h6.112v-33.4Zm-3.043,24.9a9.835,9.835,0,0,1-14.631.045,12.458,12.458,0,0,1-.125-16.463,9.643,9.643,0,0,1,7.407-3.312,9.462,9.462,0,0,1,7.38,3.3,11.4,11.4,0,0,1,3.011,7.794v.816a11.756,11.756,0,0,1-3.043,7.823" transform="translate(-513.5 -314.051)" fill="#fff"/><path d="M27.2,54.437A27.209,27.209,0,0,1,0,27.221,27.209,27.209,0,0,1,46.451,7.971,27.219,27.219,0,0,1,27.2,54.437Zm0-48.09A20.867,20.867,0,1,0,48.081,27.221,20.9,20.9,0,0,0,27.2,6.347Z" transform="translate(32.46 0)" fill="#fff"/><path d="M632.292,340.375A14.674,14.674,0,1,1,617.619,325.7a14.684,14.684,0,0,1,14.673,14.674" transform="translate(-557.941 -313.156)" fill="#fff"/><path d="M686.564,343.6a9.519,9.519,0,0,0,4.769-2.922,9.852,9.852,0,0,0,2.1-6.257,9.431,9.431,0,0,0-3.345-7.507c-2-1.69-5.231-2.552-9.6-2.552h-9.825v33.4h6.1V344.579h3.773l8.84,13.169h7.454c-1.657-2.293-9.639-13.3-10.263-14.153m-5.37-4.482h-4.436v-8.966h4.626c5.435,0,6.071,2.451,6.071,4.309,0,2-.646,4.658-6.261,4.658" transform="translate(-523.29 -313.843)" fill="#fff"/><path d="M744.99,343.818s.148-.1.237-.165c.624.766,10.441,12.887,11.429,14.1h8.106c-2-2.395-14.484-17.4-15.1-18.172.753-.751,15.206-15.219,15.206-15.219h-7.985S746.775,334.5,744.99,336.3V324.357h-6.1v33.391h6.1Z" transform="translate(-488.374 -313.843)" fill="#fff"/><path d="M744.99,346.445h0Z" transform="translate(-488.374 -302.54)" fill="#fff"/></g><g transform="translate(1017.171 6099.304)"><path d="M761.238,1220.429l-4.928-7.613a6.208,6.208,0,0,1,2.272-8.48h0a6.208,6.208,0,0,1,8.481,2.272l3.2,5.221" transform="translate(-749.548 -1192.887)" fill="none" stroke="#fff" stroke-miterlimit="10" stroke-width="2"/><path d="M786.663,1267.574l11.9-12.828a6.208,6.208,0,0,0-.331-8.774h0a6.207,6.207,0,0,0-8.773.33l1.156-1.248a6.207,6.207,0,0,0-.33-8.773h0a6.208,6.208,0,0,0-8.773.332l-.836.9,2.237-2.411a6.209,6.209,0,0,0-.331-8.774h0a6.209,6.209,0,0,0-8.774.331l14.342-15.12c2.331-2.514,2.984-6.134-.331-8.772h0c-2.47-1.657-5.924-.863-8.255,1.65l-17.474,16.62" transform="translate(-750.882 -1192.562)" fill="none" stroke="#fff" stroke-miterlimit="10" stroke-width="2"/><path d="M759.254,1225.876s-13.067,12.4-10.979,27.072l2.619,25.185" transform="translate(-748.049 -1197.402)" fill="none" stroke="#fff" stroke-miterlimit="10" stroke-width="2"/><line x2="1.037" y2="4.148" transform="translate(29.506 0)" fill="none" stroke="#fff" stroke-linecap="round" stroke-width="2"/><line x1="4.148" y1="1.037" transform="translate(45.061 17.63)" fill="none" stroke="#fff" stroke-linecap="round" stroke-width="2"/><line x1="3.111" y2="3.111" transform="translate(41.95 3.111)" fill="none" stroke="#fff" stroke-linecap="round" stroke-width="2"/></g></g></svg>