<svg xmlns="http://www.w3.org/2000/svg" width="51.884" height="80.479" viewBox="0 0 51.884 80.479"><g transform="translate(-1296.041 -123.074)"><path d="M761.032,1219.824l-4.751-7.341a5.986,5.986,0,0,1,2.191-8.177h0a5.986,5.986,0,0,1,8.178,2.191l3.089,5.035" transform="translate(548.289 -1067.766)" fill="none" stroke="#000" stroke-miterlimit="10" stroke-width="4"/><path d="M785.785,1265.227l11.472-12.37a5.986,5.986,0,0,0-.319-8.46h0a5.986,5.986,0,0,0-8.459.319l1.115-1.2a5.985,5.985,0,0,0-.319-8.459h0a5.986,5.986,0,0,0-8.459.319l-.806.868,2.157-2.325a5.987,5.987,0,0,0-.319-8.46h0a5.987,5.987,0,0,0-8.46.319l13.829-14.58c2.248-2.424,2.877-5.915-.319-8.459h0c-2.382-1.6-5.712-.832-7.96,1.591l-16.85,16.026" transform="translate(546.766 -1067.396)" fill="none" stroke="#000" stroke-miterlimit="10" stroke-width="4"/><path d="M758.853,1225.876s-12.6,11.955-10.587,26.1l2.525,24.285" transform="translate(550 -1072.919)" fill="none" stroke="#000" stroke-miterlimit="10" stroke-width="4"/><line x2="1" y2="4" transform="translate(1326.5 125.5)" fill="none" stroke="#000" stroke-linecap="round" stroke-width="4"/><line x1="4" y1="1" transform="translate(1341.5 142.5)" fill="none" stroke="#000" stroke-linecap="round" stroke-width="4"/><line x1="3" y2="3" transform="translate(1338.5 128.5)" fill="none" stroke="#000" stroke-linecap="round" stroke-width="4"/></g></svg>